<?xml version="1.0" standalone="no"?>
<!DOCTYPE svg PUBLIC "-//W3C//DTD SVG 20010904//EN"
 "http://www.w3.org/TR/2001/REC-SVG-20010904/DTD/svg10.dtd">
<svg version="1.0" xmlns="http://www.w3.org/2000/svg"
 width="1703.000000pt" height="1127.000000pt" viewBox="0 0 1703.000000 1127.000000"
 preserveAspectRatio="xMidYMid meet">

<g transform="translate(0.000000,1127.000000) scale(0.100000,-0.100000)"
fill="#000000" stroke="none">
<path d="M14135 10695 c-5 -2 -22 -6 -37 -9 -35 -8 -148 -158 -238 -315 -202
-352 -348 -560 -538 -766 -174 -188 -204 -213 -465 -380 -206 -132 -608 -355
-737 -410 -41 -17 -109 -46 -151 -64 -43 -18 -93 -47 -112 -66 -32 -31 -236
-159 -329 -206 -24 -12 -70 -40 -103 -63 -33 -24 -98 -64 -145 -90 -84 -47
-113 -66 -180 -118 -34 -26 -34 -28 -15 -42 22 -16 23 -15 -94 -31 -55 -7 -89
-24 -71 -35 11 -7 11 -14 0 -39 -10 -25 -18 -31 -41 -31 -34 0 -39 -23 -9 -42
11 -7 20 -21 20 -30 0 -15 -9 -18 -55 -18 -61 0 -73 -15 -26 -33 34 -13 60
-47 36 -47 -9 0 -29 7 -46 15 -36 19 -53 12 -38 -16 16 -30 4 -34 -43 -16 -50
20 -66 10 -38 -25 11 -15 20 -28 20 -31 0 -12 -33 -16 -51 -7 -19 11 -23 4
-22 -37 1 -8 -12 -6 -38 8 -26 13 -39 26 -39 39 0 11 5 20 10 20 6 0 10 7 10
15 0 8 9 20 20 27 11 7 20 21 20 31 0 9 4 25 9 35 5 9 20 44 32 77 33 86 61
120 124 145 56 23 66 38 40 60 -22 18 -18 44 9 77 38 46 60 107 46 132 -9 17
-14 19 -31 11 -11 -6 -24 -8 -29 -5 -20 13 -9 35 35 66 25 18 46 38 47 46 0 7
1 19 2 25 1 7 -10 13 -24 13 -22 0 -25 4 -21 30 1 17 7 38 12 47 18 33 8 42
-11 11 -11 -18 -24 -33 -30 -33 -5 0 -10 -6 -10 -13 0 -7 -25 -51 -55 -97 -30
-46 -55 -88 -55 -94 0 -5 -7 -18 -17 -28 -9 -10 -21 -27 -27 -37 -75 -131
-249 -335 -317 -372 -88 -48 -107 -59 -118 -73 -8 -9 -20 -16 -28 -16 -7 0
-16 -7 -19 -15 -6 -13 -60 -51 -96 -67 -10 -4 -18 -15 -18 -23 0 -9 -18 -34
-41 -56 -39 -37 -40 -39 -16 -39 21 0 24 -4 20 -21 -4 -15 0 -27 12 -36 18
-12 18 -13 -6 -13 -13 0 -36 -2 -51 -3 l-27 -2 25 -26 c13 -14 24 -30 24 -35
0 -18 -43 -31 -82 -26 -36 4 -51 -9 -28 -23 6 -3 17 -20 26 -36 14 -29 14 -30
-3 -21 -10 6 -27 20 -37 31 -19 21 -56 29 -56 12 0 -6 -12 -16 -27 -23 -25
-12 -28 -21 -38 -91 -9 -64 -15 -83 -35 -99 -53 -42 -86 -58 -122 -58 -33 0
-42 6 -79 54 -47 60 -52 61 -103 7 -17 -17 -37 -31 -46 -31 -9 0 -38 20 -65
45 -41 37 -55 45 -77 41 -16 -3 -28 -1 -28 4 0 16 -46 12 -60 -5 -17 -20 -26
-19 -51 6 -19 19 -25 20 -60 10 -23 -7 -39 -18 -39 -27 0 -8 -8 -18 -17 -21
-10 -4 -36 -21 -59 -40 -45 -36 -60 -39 -86 -19 -17 12 -17 14 0 29 9 9 35 24
58 34 22 10 55 36 74 58 142 164 174 243 168 418 l-3 92 -69 3 c-65 3 -71 1
-133 -39 -37 -24 -96 -78 -136 -123 -39 -45 -73 -83 -76 -86 -15 -13 -111
-130 -145 -177 -42 -59 -166 -177 -208 -199 -28 -14 -48 -12 -48 6 0 5 34 58
75 119 222 328 285 591 187 774 -34 64 -67 81 -127 66 -73 -18 -68 -9 -280
-549 -63 -160 -223 -465 -285 -542 -44 -56 -165 -158 -186 -158 -8 0 -14 -4
-14 -8 0 -10 98 -29 198 -38 63 -6 72 -5 72 10 0 9 5 16 11 16 6 0 24 14 41
30 16 17 40 30 54 30 13 0 33 4 44 10 11 5 28 14 39 19 10 5 38 15 62 21 24 6
58 18 76 27 33 17 31 18 95 -15 3 -2 9 6 13 17 3 12 13 21 20 21 8 0 18 8 24
18 8 13 23 17 74 17 36 0 60 3 54 7 -7 4 1 11 18 18 58 22 155 73 155 81 0 5
7 9 16 9 29 0 12 -44 -23 -59 -25 -11 -33 -21 -33 -40 0 -14 -11 -36 -24 -48
-34 -33 -46 -89 -30 -144 8 -24 14 -63 14 -86 0 -36 -3 -43 -20 -43 -17 0 -20
-7 -20 -38 0 -41 23 -76 52 -78 9 -1 33 13 53 32 33 30 43 33 107 36 46 2 73
7 76 16 2 6 -4 12 -14 12 -16 0 -16 1 2 14 13 10 21 11 26 4 4 -8 14 -8 35 0
15 6 42 12 58 14 17 2 28 7 27 12 -4 9 17 26 33 26 5 0 4 -5 -3 -12 -7 -7 -12
-18 -12 -26 0 -19 101 -8 116 13 6 8 15 15 19 15 5 0 16 7 26 16 24 21 53 5
69 -38 22 -61 38 -131 33 -144 -3 -7 -14 -15 -26 -17 -22 -4 -22 -4 1 -12 17
-6 22 -14 20 -33 -3 -24 0 -25 60 -29 61 -4 62 -4 62 21 0 16 -7 27 -20 31
-22 7 -27 52 -9 86 12 23 26 17 41 -19 9 -22 12 -24 15 -9 8 30 47 17 51 -17
2 -18 0 -26 -7 -21 -6 3 -11 2 -11 -4 0 -13 54 -51 74 -51 27 0 18 -17 -14
-28 -21 -8 -28 -16 -24 -26 8 -20 36 -20 77 -1 79 38 117 69 117 97 0 14 5 18
19 13 24 -7 51 4 51 21 0 15 9 17 52 14 17 -1 30 5 37 18 11 20 30 20 99 -2
16 -5 22 -3 22 7 0 18 53 34 58 18 2 -6 14 -11 27 -11 13 0 31 -7 39 -16 12
-12 26 -14 56 -9 26 4 40 3 40 -4 0 -6 5 -11 11 -11 7 0 23 -12 36 -27 20 -21
27 -23 34 -12 7 11 9 11 9 -3 0 -25 16 -30 57 -19 42 12 51 8 33 -14 -10 -13
-9 -15 8 -15 12 0 24 -4 27 -10 3 -5 14 -10 25 -10 12 0 17 -6 14 -17 -4 -14
2 -19 31 -21 35 -2 35 -2 20 20 -8 13 -31 34 -51 48 -20 14 -45 35 -57 48 -11
12 -26 22 -33 22 -17 0 -46 47 -34 55 11 7 86 -35 123 -69 29 -27 51 -37 92
-42 48 -6 58 -13 52 -35 -3 -12 -1 -19 6 -16 6 2 14 14 17 28 6 22 7 22 13
-10 5 -23 11 -32 21 -28 8 3 16 1 18 -5 2 -5 19 -12 38 -14 42 -5 90 -23 109
-42 7 -7 16 -11 19 -8 3 3 -17 26 -44 51 -27 24 -43 45 -36 45 17 0 15 30 -2
30 -8 0 -16 6 -19 13 -2 6 -8 9 -12 5 -4 -4 -2 -14 5 -23 8 -10 9 -15 1 -15
-11 0 -13 6 -15 49 -1 17 -8 25 -25 28 -14 2 -31 12 -38 23 -8 11 -23 20 -34
20 -10 0 -19 5 -19 10 0 16 18 12 60 -15 22 -14 44 -25 49 -25 5 0 11 -7 15
-15 3 -8 12 -15 21 -15 8 0 15 -4 15 -9 0 -4 15 -8 33 -8 17 1 48 -7 66 -16
27 -14 36 -15 43 -5 6 10 8 8 8 -4 0 -11 5 -15 15 -12 8 4 15 1 15 -5 0 -6 10
-11 22 -11 23 0 148 -69 148 -82 0 -4 8 -8 19 -8 30 0 130 -73 205 -150 38
-38 75 -70 81 -70 27 0 135 -63 204 -120 45 -36 81 -58 89 -55 16 6 52 -21 52
-38 0 -25 -89 3 -175 56 -49 30 -92 53 -95 51 -6 -7 91 -93 125 -111 17 -8 37
-21 45 -28 8 -7 31 -18 50 -24 32 -10 65 -42 128 -120 22 -29 42 -21 42 17 l0
26 29 -32 c17 -17 36 -32 44 -32 8 0 17 -9 20 -20 5 -21 37 -28 37 -9 0 6 -16
29 -35 50 -19 22 -35 44 -35 49 0 13 -43 56 -52 53 -5 -2 -8 3 -8 10 0 7 -9
19 -19 26 -20 15 -18 41 3 41 6 0 54 -41 105 -91 66 -64 99 -89 114 -87 31 5
31 25 0 42 -37 19 -86 68 -122 121 -25 37 -26 43 -13 52 14 8 10 17 -26 59
-39 47 -52 74 -34 74 4 0 31 -23 59 -50 29 -28 59 -50 67 -50 8 0 16 -7 20
-15 3 -8 17 -20 31 -25 14 -5 25 -14 25 -19 0 -5 20 -17 45 -28 25 -10 45 -23
45 -30 0 -6 13 -15 28 -21 34 -12 95 6 100 29 3 16 -37 69 -52 69 -5 0 -23 15
-40 32 l-31 33 -5 -29 c-3 -16 -10 -31 -16 -33 -12 -4 -90 68 -86 80 1 4 -4 7
-12 7 -8 0 -17 11 -20 25 -4 14 -11 23 -16 20 -11 -7 -40 18 -40 34 0 6 -4 11
-10 11 -5 0 -10 7 -10 15 0 8 -7 15 -16 15 -8 0 -13 4 -10 9 3 5 -1 12 -10 15
-9 4 -14 9 -11 12 8 8 136 -64 180 -102 22 -18 44 -31 49 -28 6 4 6 9 1 13
-97 83 -149 124 -252 202 -69 52 -144 109 -168 127 -23 17 -46 32 -50 32 -5 0
-14 9 -21 20 -7 11 -17 20 -23 20 -6 0 -28 15 -49 33 -21 17 -69 47 -107 66
-37 19 -75 40 -83 46 -8 7 -49 30 -90 51 -41 21 -80 45 -88 52 -7 6 -22 12
-32 12 -10 0 -21 7 -24 16 -3 8 -11 12 -17 9 -6 -4 -13 2 -16 14 -4 15 -13 21
-33 21 -33 0 -60 9 -60 19 0 4 14 5 31 3 20 -3 29 -1 26 5 -12 19 17 42 46 36
15 -3 27 -9 27 -14 0 -5 5 -9 10 -9 22 0 8 21 -22 34 -18 8 -42 21 -53 29 -19
15 -18 16 15 11 19 -3 42 -8 50 -11 8 -3 17 -7 20 -7 9 -2 64 -40 126 -86 33
-25 80 -58 103 -75 24 -16 50 -38 60 -48 27 -30 113 -66 176 -74 37 -4 50 -8
34 -11 -18 -2 -29 -11 -33 -25 -9 -34 -8 -37 15 -37 13 0 23 -8 26 -21 3 -11
11 -18 18 -15 8 3 16 -2 19 -10 3 -8 12 -14 21 -14 8 0 15 -6 15 -13 0 -14 35
-47 51 -47 5 0 8 -4 5 -9 -3 -4 13 -17 35 -27 23 -11 42 -28 45 -41 5 -20 44
-64 44 -50 0 3 28 -21 62 -53 40 -39 74 -62 95 -66 18 -3 31 -11 30 -17 -1 -6
7 -13 18 -15 12 -1 34 -14 50 -27 48 -42 88 -28 45 15 -11 11 -20 25 -20 30 0
6 -4 10 -9 10 -5 0 -30 20 -55 45 -26 25 -51 45 -56 45 -6 0 -10 5 -10 11 0
11 -25 39 -35 39 -12 0 -34 27 -28 34 3 3 -8 9 -25 12 -21 4 -34 15 -42 35 -7
15 -20 31 -31 34 -10 3 -21 15 -24 26 -4 11 -18 25 -31 31 -13 6 -24 15 -24
21 0 5 -7 7 -15 3 -9 -3 -15 0 -15 8 0 14 -75 66 -96 66 -8 0 -14 7 -14 15 0
20 24 19 41 -1 7 -8 29 -24 49 -34 21 -11 64 -42 96 -69 32 -28 64 -51 71 -51
6 0 32 -18 57 -39 25 -22 56 -43 68 -46 13 -4 37 -20 53 -35 17 -15 40 -31 52
-34 21 -7 98 -79 120 -113 6 -10 17 -17 23 -15 7 2 10 -3 7 -12 -4 -9 4 -28
17 -43 12 -16 28 -43 35 -60 8 -18 16 -33 18 -33 13 0 63 43 63 54 0 8 7 19
16 26 9 8 14 25 12 43 -4 36 -23 47 -31 17 -9 -34 -50 -24 -116 28 -43 34 -59
52 -55 64 4 12 -3 22 -20 30 -14 6 -26 15 -26 19 0 4 -20 15 -44 24 -24 9 -61
34 -82 56 -21 21 -44 39 -52 39 -8 0 -41 25 -74 55 -34 30 -64 53 -67 51 -4
-3 -18 4 -31 15 -65 51 -189 129 -205 129 -10 0 -37 9 -59 19 -23 10 -77 36
-121 56 -44 21 -92 48 -106 62 -15 13 -33 25 -41 26 -7 2 -24 13 -36 25 -12
12 -29 22 -37 22 -9 0 -27 11 -41 25 -14 14 -31 25 -39 25 -8 0 -15 4 -15 10
0 5 -14 17 -31 25 -16 9 -28 22 -26 28 5 14 76 12 91 -3 6 -6 17 -10 26 -10 9
0 32 -8 52 -19 23 -11 39 -14 41 -8 7 21 44 16 67 -8 13 -14 31 -25 39 -25 13
-1 13 -2 -2 -11 -15 -9 -9 -15 45 -43 35 -18 79 -38 98 -45 20 -6 50 -26 67
-44 17 -17 48 -41 69 -52 21 -11 62 -43 91 -72 29 -29 53 -50 53 -48 0 5 32
-20 62 -47 10 -10 23 -18 28 -18 6 0 10 -4 10 -10 0 -5 19 -22 43 -36 23 -15
44 -30 47 -33 3 -4 32 -24 65 -46 33 -22 66 -48 73 -57 7 -10 20 -18 28 -18 8
0 14 -4 14 -10 0 -5 7 -10 15 -10 8 0 15 -3 15 -8 0 -8 64 -38 104 -48 22 -5
27 -2 36 21 9 22 7 30 -8 44 -10 9 -27 28 -36 44 -10 15 -25 27 -32 27 -8 0
-14 7 -14 15 0 8 -4 15 -10 15 -15 0 -50 33 -50 47 0 7 -3 12 -7 11 -18 -3
-103 44 -103 57 0 8 -6 15 -12 15 -7 0 -26 11 -42 25 -16 13 -33 22 -37 19 -5
-3 -9 2 -9 10 0 9 -6 16 -13 16 -7 0 -18 9 -25 20 -7 11 -21 20 -32 20 -11 0
-28 9 -37 20 -10 11 -23 20 -31 20 -7 0 -25 11 -40 25 -15 14 -37 25 -49 25
-13 0 -23 4 -23 8 0 5 -11 14 -25 20 -14 7 -36 17 -50 24 -30 13 -33 28 -6 28
16 0 287 -153 317 -179 7 -5 14 -8 16 -6 2 3 19 -9 37 -25 18 -17 34 -30 37
-30 3 0 16 -11 30 -25 14 -14 31 -25 39 -25 8 0 21 -10 29 -22 9 -12 18 -19
22 -16 3 4 23 -11 44 -33 21 -21 45 -39 54 -39 9 0 16 -7 16 -15 0 -9 7 -18
15 -21 8 -4 15 -12 15 -19 0 -8 8 -16 19 -20 10 -3 48 -35 84 -70 62 -63 66
-64 96 -54 20 7 33 20 37 35 3 13 9 24 14 24 4 0 7 14 8 31 1 43 18 58 26 24
4 -14 11 -23 15 -20 25 15 -31 105 -65 105 -12 0 -29 7 -38 15 -8 8 -17 15
-19 15 -3 0 -19 14 -37 30 -18 17 -36 30 -42 30 -5 0 -40 18 -76 39 -37 21
-94 53 -127 71 -120 65 -146 82 -212 140 -41 36 -81 62 -101 66 -18 3 -34 10
-37 14 -3 5 -22 14 -42 21 -21 6 -55 25 -77 41 -30 21 -47 27 -67 23 -28 -6
-109 21 -109 36 0 5 -10 9 -22 9 -20 0 -20 -1 -4 -19 13 -14 14 -21 5 -27 -7
-4 -17 -1 -23 7 -7 10 -24 14 -48 12 -23 -2 -42 2 -51 12 -9 8 -21 15 -27 15
-6 0 -26 11 -43 24 -18 13 -66 40 -107 60 -41 20 -79 41 -84 46 -6 6 -17 10
-25 10 -9 0 -29 7 -45 15 -15 8 -35 15 -43 15 -8 0 -12 4 -9 9 4 6 19 6 39 0
17 -5 49 -7 70 -6 20 2 37 0 37 -4 0 -4 30 -7 66 -8 37 0 73 -6 80 -12 7 -6
17 -8 23 -5 5 4 20 2 33 -3 13 -5 50 -14 83 -21 67 -13 123 -38 205 -90 30
-20 90 -53 133 -74 42 -21 77 -42 77 -47 0 -5 5 -9 10 -9 24 0 6 32 -44 77
-36 31 -52 53 -47 61 7 12 32 3 197 -74 61 -29 75 -31 43 -6 -39 29 -229 122
-250 122 -11 0 -50 18 -87 40 -37 23 -77 43 -89 46 -13 4 -23 10 -23 14 0 5
-17 14 -37 21 -21 6 -42 15 -48 19 -5 3 -30 12 -55 19 -124 34 -128 36 -195
67 l-40 18 33 4 c19 2 49 -4 67 -12 18 -9 44 -16 57 -15 19 0 17 4 -16 19 -51
24 -31 34 28 14 26 -9 50 -13 53 -10 4 3 1 6 -7 6 -10 0 -10 3 0 15 10 12 10
15 -4 15 -9 0 -16 3 -16 8 0 11 -99 55 -139 61 -19 4 -36 12 -39 19 -2 7 2 10
11 6 8 -3 40 2 70 11 47 13 57 21 66 47 8 24 15 29 28 22 10 -4 54 -13 98 -19
44 -6 87 -14 95 -17 8 -4 26 -9 40 -11 14 -3 54 -13 89 -22 36 -8 72 -14 80
-12 21 5 70 -20 93 -47 31 -35 48 -82 42 -115 -9 -42 -30 -40 -118 8 -49 27
-89 41 -131 46 -33 3 -65 11 -72 17 -8 7 -19 5 -35 -6 -12 -9 -17 -17 -10 -17
22 -3 27 -4 52 -20 32 -21 240 -87 294 -94 12 -1 52 -14 90 -29 80 -31 77 -30
70 -11 -9 22 12 18 28 -4 8 -11 53 -36 101 -55 85 -34 110 -41 307 -86 52 -12
124 -30 160 -40 106 -29 203 -50 261 -56 30 -3 83 -12 119 -20 36 -8 106 -18
155 -23 l90 -8 45 34 c24 18 56 36 70 40 14 3 51 19 82 35 32 15 82 37 110 48
55 21 110 64 121 94 9 22 -15 68 -49 95 -31 24 -25 37 19 46 75 16 337 181
367 232 29 50 25 74 -20 118 -22 21 -40 44 -40 50 0 6 28 25 63 41 49 23 89
56 191 158 134 135 176 186 176 217 0 25 -80 65 -195 98 -95 27 -122 48 -56
43 47 -4 68 6 234 115 96 63 154 111 231 190 115 116 148 165 128 185 -22 22
-276 15 -402 -10 -128 -26 -330 -34 -330 -13 0 5 28 10 63 13 55 3 69 8 109
41 24 20 64 44 89 52 199 70 481 293 633 498 55 74 57 79 39 93 -10 7 -29 12
-43 9 -14 -2 -43 -7 -65 -11 -53 -8 -246 -86 -428 -174 -82 -39 -161 -73 -177
-76 -47 -10 -42 12 13 46 29 18 61 39 72 47 11 7 63 42 117 78 191 126 467
346 502 400 9 14 34 35 56 47 47 27 50 37 13 39 -79 5 -167 -18 -318 -82 -70
-30 -247 -113 -275 -130 -57 -33 -605 -301 -694 -339 -47 -20 -76 -21 -76 -3
0 11 93 82 213 164 155 104 203 143 314 255 112 113 154 167 242 307 120 191
168 300 139 318 -22 14 -76 22 -105 14 -17 -4 -124 -104 -298 -278 -273 -275
-384 -379 -530 -498 -136 -111 -271 -209 -288 -209 -36 0 -15 38 51 92 101 83
222 198 256 244 17 23 56 74 86 115 55 73 203 305 233 365 9 17 23 65 32 105
9 41 20 92 25 114 5 22 12 66 15 98 6 55 5 58 -20 67 -15 6 -27 10 -28 9 -1 0
-6 -2 -12 -4z m-1760 -2525 c3 -5 -3 -10 -14 -10 -30 0 -51 -11 -51 -26 0 -8
-5 -14 -11 -14 -6 0 -25 -6 -42 -14 -30 -13 -58 -17 -219 -32 l-63 -5 56 20
c31 11 74 25 95 30 21 6 80 21 129 34 107 29 112 30 120 17z m-196 -197 c23
-15 41 -34 41 -42 -1 -40 -10 -42 -221 -43 -199 -1 -249 4 -249 22 0 5 10 11
23 15 12 3 51 15 87 25 36 11 100 22 143 26 42 3 75 10 71 15 -13 21 66 8 105
-18z m-981 -115 c-7 -19 -63 -22 -78 -4 -11 14 -7 16 35 16 33 0 45 -4 43 -12z
m884 -38 c61 -19 81 -34 142 -107 10 -12 15 -26 12 -32 -9 -14 -66 7 -66 24 0
40 -102 114 -157 115 -12 0 -25 5 -28 10 -10 16 27 12 97 -10z m-262 1 c0 -6
12 -11 28 -11 63 0 144 -37 206 -92 18 -16 18 -16 0 -14 -11 2 -21 0 -24 -5
-3 -4 -53 -4 -110 1 -58 5 -141 11 -186 14 -140 10 -211 47 -117 61 80 11 97
17 81 26 -10 7 -11 11 0 17 19 13 122 15 122 3z m-845 -21 c3 -6 -5 -10 -19
-10 -14 0 -28 5 -31 10 -3 6 5 10 19 10 14 0 28 -4 31 -10z m555 -61 c-14 -25
-63 -23 -68 4 -3 14 4 17 38 17 38 0 40 -1 30 -21z m-60 -59 c-8 -5 -17 -7
-19 -4 -3 3 1 9 9 14 8 5 17 7 19 4 3 -3 -1 -9 -9 -14z m645 10 c3 -6 -1 -7
-9 -4 -18 7 -21 14 -7 14 6 0 13 -4 16 -10z m-718 -156 c-3 -3 -12 -4 -19 -1
-8 3 -5 6 6 6 11 1 17 -2 13 -5z m-1106 -55 c19 -10 19 -12 5 -28 -9 -10 -14
-20 -11 -23 3 -3 -2 -11 -10 -18 -21 -17 -34 -3 -42 43 -5 33 -3 37 16 37 12
0 31 -5 42 -11z m-233 -90 c2 -9 -8 -29 -21 -45 l-24 -28 -54 16 c-30 9 -65
16 -78 15 -13 -1 -26 4 -29 12 -3 10 2 13 22 9 15 -3 29 -1 32 3 3 5 16 6 30
3 28 -7 31 3 7 22 -16 12 -9 14 47 12 51 -2 65 -7 68 -19z m997 -39 c3 -5 1
-10 -4 -10 -6 0 -11 5 -11 10 0 6 2 10 4 10 3 0 8 -4 11 -10z m-95 -30 c0 -5
-2 -10 -4 -10 -3 0 -8 5 -11 10 -3 6 -1 10 4 10 6 0 11 -4 11 -10z m168 0 c6
0 12 -5 12 -10 0 -13 -50 -5 -64 11 -8 9 -5 10 14 5 14 -3 31 -6 38 -6z
m-1283 -21 c11 -17 -1 -21 -15 -4 -8 9 -8 15 -2 15 6 0 14 -5 17 -11z m1325
-99 c8 -5 11 -12 8 -16 -4 -3 -14 1 -23 10 -18 17 -9 21 15 6z m-70 -90 c0 -5
-7 -7 -15 -4 -8 4 -15 8 -15 10 0 2 7 4 15 4 8 0 15 -4 15 -10z m763 -33 c18
-13 62 -40 99 -61 37 -20 73 -42 80 -49 7 -7 32 -27 56 -45 53 -42 55 -61 3
-28 -21 14 -70 41 -108 61 -37 20 -86 47 -108 61 -22 13 -50 28 -62 34 -29 12
-39 30 -22 41 21 13 27 11 62 -14z m-3833 -27 c-8 -5 -19 -10 -25 -10 -5 0 -3
5 5 10 8 5 20 10 25 10 6 0 3 -5 -5 -10z m-40 -14 c0 -2 -7 -7 -16 -10 -8 -3
-12 -2 -9 4 6 10 25 14 25 6z m1836 -48 c18 -13 38 -33 43 -45 9 -19 7 -25
-10 -34 -12 -6 -25 -7 -32 -1 -33 25 -42 20 -39 -20 5 -48 -11 -70 -34 -46
-13 13 -15 29 -9 92 7 68 10 76 28 76 11 0 35 -10 53 -22z m1339 -78 c3 -5 2
-10 -4 -10 -5 0 -13 5 -16 10 -3 6 -2 10 4 10 5 0 13 -4 16 -10z m67 -24 c6 4
13 2 17 -3 10 -16 83 -59 133 -77 25 -10 57 -29 69 -42 12 -13 26 -24 31 -24
20 0 138 -95 138 -112 0 -4 -22 -7 -49 -6 -32 2 -47 6 -44 14 2 7 -10 14 -31
18 -20 4 -36 11 -36 16 0 6 -6 10 -13 10 -7 0 -25 11 -40 25 -15 14 -27 23
-27 20 0 -2 -14 9 -30 27 -17 17 -38 36 -48 42 -64 39 -82 52 -82 59 0 5 -10
18 -22 29 -18 15 -19 18 -5 14 9 -3 18 0 18 7 1 7 3 4 6 -6 2 -9 9 -14 15 -11z
m-2292 -36 c0 -5 -2 -10 -4 -10 -3 0 -8 5 -11 10 -3 6 -1 10 4 10 6 0 11 -4
11 -10z m534 -36 c11 -29 6 -44 -14 -44 -14 0 -20 7 -20 23 0 37 23 51 34 21z
m1584 -107 c17 -10 32 -22 32 -26 0 -5 13 -12 29 -16 16 -3 32 -13 35 -21 3
-8 12 -14 20 -14 7 0 16 -7 19 -15 4 -8 23 -23 45 -34 37 -19 102 -73 102 -85
0 -13 -29 -5 -53 17 -56 47 -173 127 -188 127 -5 0 -9 5 -9 10 0 6 -6 10 -14
10 -7 0 -20 7 -27 16 -7 9 -24 20 -37 25 -14 5 -22 12 -19 16 4 3 -1 12 -11
19 -14 12 -12 12 13 1 17 -7 45 -20 63 -30z m1413 -33 c41 -19 83 -41 94 -47
11 -7 38 -23 61 -35 22 -13 41 -29 41 -35 0 -7 2 -19 4 -27 3 -11 -4 -14 -29
-12 -33 2 -71 27 -158 102 -22 19 -56 47 -75 62 -46 38 -26 35 62 -8z m-2096
16 c3 -5 -1 -10 -10 -10 -9 0 -13 5 -10 10 3 6 8 10 10 10 2 0 7 -4 10 -10z
m1005 -71 c38 -20 70 -53 70 -72 0 -4 -8 -3 -18 2 -13 7 -23 6 -31 -2 -10 -9
-11 -8 -6 6 6 13 2 17 -18 17 -14 0 -29 5 -32 10 -3 6 1 10 9 10 13 0 14 3 4
19 -7 11 -16 17 -20 15 -4 -3 -8 0 -8 5 0 15 3 14 50 -10z m500 -324 c7 -9 8
-15 2 -15 -5 0 -12 7 -16 15 -3 8 -4 15 -2 15 2 0 9 -7 16 -15z"/>
<path d="M10730 7940 c8 -5 20 -10 25 -10 6 0 3 5 -5 10 -8 5 -19 10 -25 10
-5 0 -3 -5 5 -10z"/>
<path d="M12020 7120 c0 -32 129 -138 151 -124 5 2 14 -4 21 -16 7 -11 18 -20
24 -20 5 0 19 -8 30 -17 11 -10 42 -29 69 -43 27 -14 64 -35 83 -47 18 -13 37
-23 42 -23 6 0 19 -9 30 -20 20 -20 77 -29 65 -10 -3 6 -13 10 -21 10 -8 0
-14 4 -14 9 0 5 -15 16 -32 26 -59 30 -79 42 -102 62 -12 11 -37 25 -55 31
-18 6 -42 23 -52 36 -20 26 -72 56 -96 56 -7 0 -13 4 -13 10 0 5 -11 12 -24
16 -13 3 -39 21 -57 40 -34 35 -49 42 -49 24z"/>
<path d="M11430 7090 c18 -12 30 -13 30 -2 0 4 -10 9 -22 9 -18 2 -20 0 -8 -7z"/>
<path d="M13444 7008 c2 -20 9 -33 17 -33 18 0 24 32 9 50 -20 24 -30 17 -26
-17z"/>
<path d="M8242 6902 c-64 -77 -98 -129 -88 -139 8 -8 26 7 26 22 0 7 8 16 19
20 33 10 91 74 91 100 0 32 -19 31 -48 -3z"/>
<path d="M8055 6832 c-25 -5 -75 -40 -75 -53 0 -14 64 -11 84 4 24 18 18 54
-9 49z"/>
<path d="M8304 6797 c-7 -19 13 -94 29 -107 7 -5 30 -24 51 -42 34 -28 47 -33
90 -32 28 0 62 6 75 13 23 13 24 14 7 27 -11 7 -39 12 -67 11 -35 -1 -55 3
-76 19 -30 22 -63 72 -67 101 -4 23 -34 29 -42 10z"/>
<path d="M13055 6770 c3 -5 13 -10 21 -10 8 0 12 5 9 10 -3 6 -13 10 -21 10
-8 0 -12 -4 -9 -10z"/>
<path d="M12643 6729 c6 -10 15 -19 19 -19 3 0 26 -18 50 -40 50 -46 128 -77
155 -61 16 9 16 10 -7 19 -14 6 -32 17 -39 26 -7 9 -24 16 -36 16 -12 0 -34 9
-48 20 -14 11 -30 20 -36 20 -5 0 -14 6 -18 13 -4 8 -18 16 -30 19 -19 5 -20
4 -10 -13z"/>
<path d="M10123 6695 c-17 -7 -41 -11 -52 -8 -19 5 -21 1 -21 -36 0 -33 -6
-47 -35 -75 -19 -20 -35 -42 -35 -50 0 -8 -7 -22 -16 -31 -15 -15 -15 -17 2
-29 28 -21 69 16 88 79 13 41 23 54 57 73 27 16 49 22 66 17 15 -3 22 -2 19 4
-12 18 17 24 30 6 8 -10 17 -16 20 -12 11 11 -31 56 -53 57 -13 0 -23 5 -23
10 0 13 -8 12 -47 -5z"/>
<path d="M3930 6669 c-31 -13 -40 -26 -40 -65 0 -24 5 -33 23 -38 73 -19 127
5 127 59 0 50 -47 69 -110 44z"/>
<path d="M8176 6590 c-30 -25 -42 -40 -32 -40 35 0 111 54 100 71 -8 14 -16
10 -68 -31z"/>
<path d="M8078 6603 c-18 -21 -13 -43 8 -43 12 0 34 37 34 56 0 11 -29 2 -42
-13z"/>
<path d="M9290 6570 c20 -13 50 -13 50 0 0 6 -15 10 -32 10 -25 0 -29 -3 -18
-10z"/>
<path d="M7956 6540 c-36 -23 -54 -50 -32 -50 8 0 18 5 21 11 4 5 18 14 31 19
13 5 24 16 24 25 0 19 -8 18 -44 -5z"/>
<path d="M9092 6531 c-12 -7 -12 -12 -1 -30 16 -24 29 -27 29 -7 0 8 3 21 6
30 7 18 -12 21 -34 7z"/>
<path d="M10870 6515 c0 -8 6 -15 13 -15 6 -1 43 -28 81 -60 39 -33 77 -60 85
-60 10 0 4 10 -17 26 -18 14 -49 41 -68 60 -20 18 -45 36 -55 39 -10 4 -19 11
-19 16 0 5 -4 9 -10 9 -5 0 -10 -7 -10 -15z"/>
<path d="M4925 6455 c-66 -35 -127 -64 -135 -64 -9 -1 -40 -16 -70 -35 -29
-19 -59 -32 -64 -30 -6 2 -16 -6 -21 -18 -6 -13 -27 -29 -50 -37 -22 -8 -58
-28 -79 -44 -25 -19 -58 -33 -89 -38 -27 -5 -57 -15 -66 -23 -9 -8 -39 -20
-66 -27 -28 -6 -75 -20 -105 -30 -30 -9 -80 -22 -110 -27 -30 -6 -83 -25 -118
-41 -37 -19 -78 -31 -102 -31 -34 0 -41 4 -46 26 -5 18 0 31 16 48 24 27 21
30 -32 40 -24 4 -38 3 -38 -4 0 -5 -7 -10 -15 -10 -8 0 -15 9 -15 19 0 11 -12
29 -26 40 -14 11 -23 25 -20 30 4 5 2 12 -4 16 -14 8 -13 148 1 219 13 61 10
72 -18 62 -13 -5 -14 -9 -5 -15 8 -5 3 -14 -19 -30 -32 -24 -51 -22 -30 2 9
12 4 14 -35 13 -41 -1 -47 -4 -59 -31 -30 -68 -239 -330 -326 -409 -131 -118
-149 -138 -160 -176 -15 -51 -5 -93 21 -85 14 4 19 0 22 -17 3 -20 9 -23 56
-26 44 -3 75 5 170 42 64 24 135 50 157 56 22 6 63 20 90 30 51 19 198 54 270
65 39 6 230 70 365 122 36 14 178 79 315 145 138 66 297 141 355 167 103 45
107 46 210 46 l105 0 70 -49 c102 -73 520 -497 691 -702 22 -27 78 -114 123
-194 132 -233 197 -333 306 -470 28 -36 96 -121 150 -189 54 -68 140 -165 190
-215 51 -50 98 -102 105 -116 8 -14 44 -119 82 -234 37 -114 83 -247 102 -295
65 -161 264 -559 266 -528 0 4 -9 24 -20 44 -21 39 -27 78 -11 69 5 -4 27 -39
49 -79 22 -40 48 -79 56 -86 9 -8 16 -21 16 -30 0 -9 6 -28 14 -42 19 -36 4
-59 -18 -28 -9 13 -16 18 -16 12 0 -6 10 -24 23 -40 35 -42 77 -129 77 -158 0
-22 13 -59 26 -74 2 -2 10 4 19 13 21 20 73 21 95 1 15 -14 21 -14 60 0 23 8
50 15 59 15 9 0 23 15 31 33 13 27 21 33 53 35 33 3 43 -2 79 -37 l40 -41 -7
-67 c-7 -65 -9 -205 -4 -323 3 -57 -74 -392 -107 -468 -102 -237 -113 -279
-115 -465 0 -82 -6 -165 -11 -185 -6 -20 -34 -87 -63 -148 -29 -61 -63 -142
-75 -180 -11 -38 -32 -85 -46 -105 -29 -43 -44 -90 -44 -143 0 -37 1 -38 18
-23 22 20 81 22 106 4 16 -12 17 -19 7 -66 -17 -81 -14 -135 12 -178 l22 -38
3 28 c2 15 11 31 20 36 18 10 99 165 128 244 19 54 67 98 129 116 22 7 50 17
61 23 25 12 64 -4 64 -27 0 -13 29 -35 45 -35 4 0 5 11 1 23 -3 14 1 32 9 43
8 10 15 30 15 44 0 14 7 35 15 47 12 17 16 60 19 193 3 171 3 172 30 196 14
14 26 30 26 35 0 6 9 22 20 36 26 34 27 89 1 98 -26 8 -57 37 -134 127 l-67
78 0 63 c0 111 93 504 166 703 55 150 85 176 90 81 4 -86 32 -164 70 -199 29
-26 110 -43 129 -28 8 7 15 11 16 9 0 -2 3 -33 5 -69 7 -92 65 -239 112 -285
20 -19 44 -35 52 -35 9 0 25 -6 36 -14 17 -13 19 -27 19 -158 0 -98 6 -170 18
-228 18 -89 17 -118 -10 -234 -14 -59 -14 -78 -3 -137 16 -86 2 -310 -31 -487
-12 -69 -12 -76 6 -110 22 -40 55 -56 55 -26 0 10 7 25 16 35 20 22 54 135 63
209 5 50 8 55 31 55 17 0 29 -8 38 -29 l14 -28 25 26 c13 14 28 26 32 26 5 0
11 34 15 77 4 42 14 89 22 105 8 16 14 53 14 86 -1 126 5 281 13 288 4 4 17
-2 30 -14 32 -30 46 -28 17 3 -24 25 -50 86 -50 117 0 22 19 33 33 19 6 -6 28
-11 48 -11 43 0 116 -24 140 -46 16 -15 19 -14 31 5 7 12 16 21 20 21 5 0 17
9 28 20 17 17 24 18 45 8 14 -6 25 -18 25 -25 0 -10 9 -14 28 -12 50 5 67 -9
104 -84 20 -39 39 -81 42 -91 12 -37 17 -7 6 35 -7 24 -14 56 -16 71 -1 15 -8
37 -14 49 -7 11 -9 23 -6 26 3 3 -4 23 -14 44 -11 21 -20 44 -20 52 0 8 -16
34 -34 58 -40 50 -39 64 2 28 15 -14 38 -33 51 -44 l24 -20 -17 27 c-10 15
-16 36 -14 48 2 17 -8 28 -45 49 -51 28 -187 153 -187 171 0 17 51 -23 129
-101 27 -26 71 -44 71 -28 0 5 -7 9 -16 9 -22 0 -43 24 -50 59 -4 18 -22 42
-46 61 -29 24 -37 35 -27 41 10 6 9 12 -5 28 -22 24 -38 27 -30 6 4 -8 1 -15
-4 -15 -16 0 -41 40 -35 56 3 8 -18 35 -48 65 -40 39 -49 53 -38 59 11 7 10
10 -3 15 -9 4 -24 18 -33 32 -10 15 -12 22 -4 18 7 -5 5 2 -4 16 -9 13 -17 31
-17 39 0 9 -11 26 -24 37 -23 20 -23 21 -10 94 8 41 17 92 20 114 3 22 8 46
10 54 3 8 7 53 10 100 17 252 9 420 -21 478 -8 16 -15 24 -15 19 0 -5 -7 -3
-15 4 -21 17 -47 5 -68 -32 l-19 -32 -17 23 c-10 13 -21 19 -24 14 -4 -6 -18
-8 -32 -5 -29 5 -32 -4 -8 -30 9 -10 13 -21 10 -25 -13 -13 -91 22 -120 54
-17 19 -40 33 -53 33 -13 0 -26 5 -29 10 -3 6 -10 10 -16 10 -14 0 -10 -32 6
-54 18 -24 19 -40 2 -33 -32 12 -180 133 -214 174 -41 50 -57 43 -23 -12 13
-21 17 -35 10 -35 -7 0 -49 18 -95 40 -46 22 -88 40 -94 40 -12 0 -62 29 -71
41 -3 4 -42 26 -86 50 -71 38 -97 61 -199 172 -65 71 -123 131 -131 134 -7 2
-15 12 -19 21 -4 11 2 9 19 -7 41 -39 30 -14 -19 42 -24 28 -47 63 -50 78 -4
15 -13 33 -21 40 -8 6 -14 20 -14 30 0 10 -4 20 -9 24 -6 3 -28 44 -51 90 -23
47 -45 85 -50 85 -5 0 -14 16 -20 35 -14 41 -19 46 -65 50 -40 3 -45 -7 -14
-29 13 -9 19 -21 16 -30 -4 -9 -2 -16 3 -16 6 0 10 -5 10 -11 0 -6 9 -18 19
-27 22 -19 85 -196 78 -216 -3 -7 -1 -19 3 -27 5 -7 5 -18 -1 -25 -7 -9 -4
-14 10 -19 29 -9 26 -33 -4 -45 -16 -6 -25 -17 -25 -30 0 -12 5 -18 10 -15 17
10 50 -5 50 -23 0 -9 7 -30 15 -46 20 -37 19 -39 -8 -32 -37 9 -69 -4 -64 -25
8 -30 -7 -22 -22 11 -9 21 -22 33 -41 37 -29 5 -70 37 -70 53 0 5 -7 16 -16
25 -9 9 -16 27 -16 41 0 13 -4 24 -9 24 -5 0 -9 -4 -9 -10 0 -23 -19 -8 -25
21 -4 17 -13 33 -21 36 -8 3 -14 10 -14 16 0 5 8 3 18 -5 35 -30 46 -33 40
-10 -4 12 -2 22 3 22 5 0 9 -3 9 -8 0 -11 126 -142 138 -142 16 0 23 30 12 51
-6 10 -21 19 -34 19 -21 0 -76 49 -76 68 0 4 -12 15 -27 24 -19 12 -22 18 -12
18 24 0 13 42 -22 82 -17 18 -32 43 -35 55 -4 13 -12 23 -19 23 -7 0 -15 9
-18 20 -3 11 -11 20 -17 20 -7 0 -10 -7 -6 -15 9 -25 -10 -17 -24 10 -7 14
-19 25 -25 25 -7 0 -19 8 -29 19 -11 12 -26 17 -44 14 l-27 -5 29 24 c25 21
27 27 17 46 -6 12 -21 22 -31 22 -22 0 -27 16 -7 23 7 4 6 6 -4 6 -9 1 -19 8
-23 16 -3 8 -10 15 -17 15 -6 0 -29 14 -50 31 -28 22 -39 38 -39 57 l1 27 15
-28 c12 -23 18 -26 30 -16 21 17 17 26 -18 43 -38 20 -38 20 -38 0 0 -14 -2
-14 -16 -3 -11 9 -12 15 -4 17 8 3 6 10 -6 23 -9 10 -21 16 -27 12 -6 -3 -7
-1 -3 5 8 13 -24 32 -53 32 -15 0 -19 4 -14 17 4 11 -2 8 -18 -8 -13 -13 -23
-27 -22 -31 1 -3 -4 -9 -12 -12 -23 -8 -46 23 -43 58 2 23 -1 30 -12 29 -20
-3 -57 47 -42 56 12 7 -31 61 -48 61 -5 0 -17 13 -26 30 -11 17 -40 40 -71 56
-29 14 -51 30 -48 35 4 5 -5 13 -18 18 -13 5 -31 21 -40 35 -19 28 -8 36 13
11 22 -26 31 -16 15 15 -9 17 -29 39 -45 49 -33 20 -77 71 -61 71 7 0 7 8 2
23 -5 12 -14 21 -20 19 -6 -1 -11 9 -11 21 0 25 -22 49 -53 60 -18 7 -18 16 0
65 3 7 -4 12 -18 12 -25 1 -59 21 -59 35 0 5 9 0 21 -11 17 -15 22 -16 29 -4
6 10 0 22 -21 42 -16 15 -33 28 -38 28 -5 0 -16 14 -25 30 -8 17 -10 30 -5 30
17 0 9 25 -12 38 -11 7 -18 19 -15 27 8 22 -15 78 -38 95 -20 15 -20 15 14 21
35 6 35 6 10 16 -27 11 -110 90 -110 103 0 9 -57 40 -72 40 -13 0 -68 42 -68
52 0 5 5 6 11 2 8 -4 8 0 0 15 -8 14 -21 21 -40 21 -25 0 -68 29 -45 30 5 0 0
7 -11 16 -17 13 -18 16 -5 24 13 8 12 10 -4 10 -10 0 -35 10 -55 22 -20 13
-47 24 -61 26 -14 2 -38 17 -54 33 -33 34 -14 40 23 7 14 -13 23 -19 19 -14
-4 5 -3 15 3 22 7 9 5 14 -10 19 -10 3 -22 12 -25 20 -4 11 -11 13 -31 5 -23
-9 -25 -7 -25 19 0 19 -6 31 -17 34 -10 3 -29 12 -43 20 -14 8 -41 22 -60 30
l-35 16 35 -5 35 -6 -25 21 c-14 12 -49 28 -78 37 -29 9 -62 25 -73 37 -11 12
-24 22 -28 22 -11 0 -41 32 -35 37 12 12 -60 30 -101 26 -46 -6 -61 5 -24 17
11 4 19 9 16 11 -2 2 -31 -6 -65 -18 -33 -13 -64 -19 -69 -14 -8 7 0 15 44 43
50 32 -15 5 -122 -52z m-5 -34 c0 -11 -80 -54 -87 -47 -5 5 66 54 80 55 4 1 7
-3 7 -8z m-1398 -73 c-7 -7 -12 -8 -12 -2 0 14 12 26 19 19 2 -3 -1 -11 -7
-17z m33 -79 c-4 -5 -13 -9 -22 -9 -13 0 -13 3 -3 15 13 15 35 11 25 -6z
m-125 -27 c0 -5 -9 -17 -20 -27 -16 -14 -20 -15 -20 -4 0 16 19 39 32 39 4 0
8 -4 8 -8z m155 -46 c-10 -14 -22 -26 -27 -26 -10 0 -3 16 20 43 22 25 27 13
7 -17z m315 -213 c-8 -2 -25 -9 -37 -15 -13 -6 -26 -8 -29 -5 -8 8 34 26 61
26 13 -1 15 -2 5 -6z m-820 -103 c0 -5 -5 -10 -11 -10 -5 0 -7 5 -4 10 3 6 8
10 11 10 2 0 4 -4 4 -10z m3550 -1030 c0 -5 -4 -10 -10 -10 -5 0 -10 5 -10 10
0 6 5 10 10 10 6 0 10 -4 10 -10z m35 -46 c-15 -16 -18 -16 -33 -1 -15 16 -15
18 3 31 16 11 21 11 33 0 11 -12 11 -16 -3 -30z m235 -204 c0 -13 -11 -13 -30
0 -12 8 -11 10 8 10 12 0 22 -4 22 -10z m96 -105 c-5 -14 -9 -15 -21 -5 -8 7
-15 18 -15 25 0 7 -9 24 -20 38 -33 41 -23 40 21 -2 29 -27 40 -45 35 -56z
m-63 -2 c9 -3 17 -9 17 -14 0 -5 11 -9 25 -9 14 0 25 -5 25 -11 0 -19 33 -38
63 -39 19 0 27 -4 24 -12 -2 -7 -16 -12 -31 -11 -18 1 -26 -2 -23 -10 2 -7 17
-11 33 -10 18 2 24 -1 16 -6 -10 -6 -10 -10 3 -21 8 -7 15 -18 15 -25 0 -6 12
-18 26 -25 14 -8 30 -22 35 -32 5 -10 16 -18 24 -18 8 0 15 -5 15 -10 0 -6 35
-44 78 -86 52 -52 72 -78 63 -82 -8 -3 -22 4 -31 15 -9 11 -27 24 -41 28 -21
7 -53 40 -54 55 0 7 -50 53 -71 66 -11 7 -18 18 -16 27 1 8 -7 17 -21 20 -27
7 -166 141 -186 179 -7 15 -27 32 -42 39 -16 6 -29 18 -29 26 0 12 7 10 33 -7
17 -12 40 -24 50 -27z m224 -169 c-3 -3 -12 -4 -19 -1 -8 3 -5 6 6 6 11 1 17
-2 13 -5z m133 -108 c0 -11 -19 -15 -25 -6 -3 5 1 10 9 10 9 0 16 -2 16 -4z
m-186 -382 c3 -9 6 -28 6 -42 0 -25 -1 -26 -14 -7 -23 34 -29 65 -13 65 8 0
18 -7 21 -16z m536 -35 c0 -5 -12 -8 -27 -7 -34 2 -45 7 -39 17 7 10 66 1 66
-10z m-3 -45 c-3 -3 -12 -4 -19 -1 -8 3 -5 6 6 6 11 1 17 -2 13 -5z m-441
-107 c7 -24 0 -30 -23 -23 -17 5 -54 83 -53 111 1 13 68 -65 76 -88z m1694
-323 c0 -8 -4 -12 -10 -9 -5 3 -10 10 -10 16 0 5 5 9 10 9 6 0 10 -7 10 -16z
m-1476 -154 c19 -35 24 -54 18 -66 -7 -13 -14 -5 -36 41 -28 61 -31 75 -18 75
5 0 21 -22 36 -50z m1356 -134 c0 -9 -30 -14 -35 -6 -4 6 3 10 14 10 12 0 21
-2 21 -4z m10 -657 c0 -6 -4 -7 -10 -4 -5 3 -10 11 -10 16 0 6 5 7 10 4 6 -3
10 -11 10 -16z m-40 -119 c0 -5 -4 -10 -10 -10 -5 0 -10 5 -10 10 0 6 5 10 10
10 6 0 10 -4 10 -10z m17 -42 c-3 -8 -6 -5 -6 6 -1 11 2 17 5 13 3 -3 4 -12 1
-19z m-37 2 c0 -5 -4 -10 -10 -10 -5 0 -10 5 -10 10 0 6 5 10 10 10 6 0 10 -4
10 -10z m-870 -20 c0 -5 -2 -10 -4 -10 -3 0 -8 5 -11 10 -3 6 -1 10 4 10 6 0
11 -4 11 -10z m-30 -10 c0 -5 -4 -10 -10 -10 -5 0 -10 5 -10 10 0 6 5 10 10
10 6 0 10 -4 10 -10z m940 -30 c0 -5 -4 -10 -10 -10 -5 0 -10 5 -10 10 0 6 5
10 10 10 6 0 10 -4 10 -10z m-980 -36 c0 -8 -5 -12 -10 -9 -6 4 -8 11 -5 16 9
14 15 11 15 -7z m930 -28 c0 -3 -4 -8 -10 -11 -5 -3 -10 -1 -10 4 0 6 5 11 10
11 6 0 10 -2 10 -4z m-910 -27 c0 6 5 11 10 11 14 0 12 -13 -5 -36 -15 -19
-15 -19 -30 0 -17 23 -9 42 11 25 10 -8 14 -8 14 0z m962 -21 c-12 -12 -35 -1
-27 12 3 5 13 6 21 3 10 -4 12 -9 6 -15z m-992 -18 c0 -5 -4 -10 -10 -10 -5 0
-10 5 -10 10 0 6 5 10 10 10 6 0 10 -4 10 -10z m30 -41 c0 -20 -4 -29 -12 -26
-7 2 -12 9 -11 15 1 5 -7 8 -17 5 -25 -7 -26 5 -2 23 28 22 42 16 42 -17z
m-77 -61 c-10 -20 -20 -5 -18 25 4 44 6 47 14 12 4 -16 6 -33 4 -37z m40 -4
c-3 -8 -13 -14 -22 -14 -12 0 -13 2 -3 8 8 5 10 16 5 28 -6 17 -5 17 10 6 8
-8 13 -20 10 -28z m-56 -400 c-9 -9 -28 6 -21 18 4 6 10 6 17 -1 6 -6 8 -13 4
-17z"/>
<path d="M6998 4408 c9 -9 15 -9 24 0 9 9 7 12 -12 12 -19 0 -21 -3 -12 -12z"/>
<path d="M10622 6494 c10 -10 20 -15 24 -12 3 4 -5 12 -18 18 -22 12 -22 12
-6 -6z"/>
<path d="M9150 6450 c0 -5 5 -10 10 -10 6 0 10 5 10 10 0 6 -4 10 -10 10 -5 0
-10 -4 -10 -10z"/>
<path d="M9020 6434 c0 -4 7 -15 15 -25 13 -14 20 -15 40 -5 14 6 23 16 22 21
-4 11 -77 20 -77 9z"/>
<path d="M9915 6410 c-28 -31 -8 -37 23 -7 19 20 22 27 11 27 -9 0 -24 -9 -34
-20z"/>
<path d="M8772 6392 c-21 -7 17 -42 45 -42 12 0 23 -4 23 -9 0 -22 -22 -20
-71 4 -28 15 -57 24 -65 21 -17 -7 -19 -48 -1 -45 33 6 68 -15 82 -47 10 -25
18 -32 31 -27 13 5 15 2 10 -14 -3 -10 0 -28 9 -39 14 -19 14 -19 15 3 0 12 7
26 16 31 13 7 14 15 5 48 -6 21 -11 50 -11 64 0 19 -9 29 -38 41 -20 8 -43 14
-50 11z"/>
<path d="M9936 6355 c-9 -14 -20 -24 -25 -22 -10 3 -61 -57 -61 -72 0 -6 7
-11 15 -11 19 0 19 -27 1 -62 -9 -16 -11 -30 -5 -33 5 -4 9 0 9 8 0 7 12 24
26 38 34 31 83 134 77 159 -7 27 -17 25 -37 -5z"/>
<path d="M8921 6288 c12 -53 19 -64 30 -47 8 12 11 11 20 -1 9 -13 10 -13 6 0
-2 8 -14 20 -26 26 -14 7 -19 14 -12 18 6 4 16 4 21 1 6 -3 10 3 10 13 0 19
-18 32 -45 32 -10 0 -11 -9 -4 -42z"/>
<path d="M11281 6311 c-9 -6 -10 -11 -2 -15 16 -10 4 -26 -20 -26 -26 0 -24
-25 5 -63 33 -44 22 -62 -36 -59 -24 2 -62 4 -85 4 -23 1 -40 5 -38 8 5 8 -47
21 -53 15 -7 -7 39 -40 96 -71 37 -19 56 -36 54 -46 -1 -9 4 -18 13 -22 8 -3
15 -11 15 -18 0 -8 9 -20 20 -28 11 -8 20 -19 20 -25 0 -20 111 -144 129 -145
7 0 11 -6 8 -14 -4 -10 5 -19 24 -28 16 -7 29 -16 29 -20 0 -4 23 -17 50 -29
28 -12 61 -34 73 -49 17 -20 36 -29 75 -34 35 -4 52 -3 52 4 0 21 -55 81 -97
105 -44 26 -263 238 -263 255 0 6 -6 10 -13 10 -8 0 -28 15 -45 34 -26 29 -29
36 -17 46 8 6 11 18 8 26 -3 8 0 14 6 14 6 0 11 6 11 14 0 21 58 -3 66 -26 5
-17 88 -108 99 -108 3 0 5 7 5 15 0 8 -4 15 -10 15 -5 0 -10 12 -10 26 0 23
-3 25 -24 20 -17 -4 -26 -1 -30 10 -10 25 -7 46 5 39 6 -4 8 -13 5 -21 -3 -8
1 -14 9 -14 19 0 19 19 0 44 -11 14 -21 17 -42 12 -23 -6 -26 -5 -15 5 14 15
16 33 2 24 -5 -3 -10 1 -10 9 0 9 -7 16 -16 16 -22 0 -14 34 9 38 10 2 28 -5
39 -15 20 -18 21 -18 10 3 -11 22 -74 74 -89 74 -4 0 -14 -4 -22 -9z"/>
<path d="M8540 6296 c0 -18 -21 -26 -73 -27 -40 -1 -41 -1 -13 -10 17 -4 34
-15 39 -24 5 -10 16 -14 28 -10 14 5 27 -1 44 -19 23 -25 24 -25 55 -9 30 15
35 14 61 -1 38 -23 37 -3 -1 24 -16 12 -30 26 -30 32 0 7 4 7 13 0 9 -8 19 -5
37 9 25 19 25 19 5 35 -12 9 -28 12 -40 8 -32 -10 -105 -12 -105 -3 0 5 -4 9
-10 9 -5 0 -10 -6 -10 -14z m68 -54 c6 -19 -13 -14 -33 8 -18 20 -18 21 5 12
13 -5 26 -14 28 -20z"/>
<path d="M9214 6289 c5 -13 8 -32 9 -41 1 -10 5 -18 10 -18 4 0 7 -8 6 -17 -4
-28 29 -98 57 -122 29 -25 79 -28 88 -5 4 11 -8 29 -38 55 -33 29 -45 49 -50
78 -4 28 -14 45 -34 59 -53 37 -56 37 -48 11z"/>
<path d="M8390 6270 c20 -13 33 -13 25 0 -3 6 -14 10 -23 10 -15 0 -15 -2 -2
-10z"/>
<path d="M8695 6240 c4 -6 11 -8 16 -5 14 9 11 15 -7 15 -8 0 -12 -5 -9 -10z"/>
<path d="M8966 6205 c4 -8 8 -15 10 -15 2 0 4 7 4 15 0 8 -4 15 -10 15 -5 0
-7 -7 -4 -15z"/>
<path d="M8877 6203 c-4 -3 -7 -11 -7 -17 0 -6 5 -5 12 2 6 6 9 14 7 17 -3 3
-9 2 -12 -2z"/>
<path d="M12181 6174 c0 -11 3 -14 6 -6 3 7 2 16 -1 19 -3 4 -6 -2 -5 -13z"/>
<path d="M8315 6150 c3 -5 8 -10 11 -10 2 0 4 5 4 10 0 6 -5 10 -11 10 -5 0
-7 -4 -4 -10z"/>
<path d="M10970 6034 c0 -10 28 -34 40 -34 6 0 9 -4 5 -9 -3 -6 5 -19 17 -31
l23 -21 8 26 c6 18 16 25 35 25 21 0 24 -2 12 -10 -9 -6 -10 -10 -3 -10 13 0
26 17 29 38 2 11 -9 13 -46 8 -32 -4 -60 -1 -84 9 -20 8 -36 13 -36 9z"/>
<path d="M11495 6010 c3 -5 8 -10 11 -10 2 0 4 5 4 10 0 6 -5 10 -11 10 -5 0
-7 -4 -4 -10z"/>
<path d="M11072 5945 c1 -14 3 -25 4 -25 1 0 9 3 18 6 12 5 13 10 5 25 -14 27
-29 24 -27 -6z"/>
<path d="M11160 5962 c0 -10 49 -62 58 -62 4 0 21 -12 37 -27 40 -38 96 -75
102 -69 3 3 -10 18 -28 33 -18 15 -42 37 -53 48 -31 30 -100 85 -108 85 -5 0
-8 -3 -8 -8z"/>
<path d="M11114 5885 c0 -29 4 -37 23 -41 16 -4 23 -13 23 -30 0 -17 4 -22 15
-17 10 3 15 0 13 -8 -2 -8 3 -13 10 -11 6 1 12 -5 12 -12 0 -22 52 -74 57 -58
8 20 25 14 18 -7 -3 -11 -1 -22 5 -26 8 -5 10 4 8 26 -2 26 -7 33 -21 31 -10
-2 -26 7 -37 20 -16 20 -17 24 -2 29 13 5 13 8 -6 27 -12 12 -22 31 -22 43 0
11 -4 18 -9 15 -5 -3 -11 1 -15 9 -8 22 -26 18 -26 -6 0 -12 -4 -17 -11 -14
-6 4 -8 14 -5 22 5 12 -14 43 -26 43 -2 0 -3 -16 -4 -35z"/>
<path d="M10910 5870 c0 -13 20 -13 40 0 12 8 9 10 -12 10 -16 0 -28 -4 -28
-10z"/>
<path d="M11750 5700 c0 -5 5 -10 10 -10 6 0 10 5 10 10 0 6 -4 10 -10 10 -5
0 -10 -4 -10 -10z"/>
<path d="M11140 5694 c0 -4 17 -27 38 -52 20 -25 40 -53 44 -61 5 -11 7 -8 7
10 1 18 -12 38 -44 68 -25 23 -45 39 -45 35z"/>
<path d="M11452 5614 c-10 -19 -16 -64 -14 -96 2 -15 12 -18 50 -18 27 0 55 6
64 13 13 10 9 19 -37 66 -48 48 -54 52 -63 35z"/>
<path d="M11229 5525 c-10 -16 -11 -165 -2 -165 23 0 108 40 105 50 -6 28 -57
90 -73 90 -9 0 -19 8 -21 18 -2 9 -6 13 -9 7z"/>
<path d="M10638 5443 c7 -3 16 -2 19 1 4 3 -2 6 -13 5 -11 0 -14 -3 -6 -6z"/>
<path d="M10230 5224 c0 -9 5 -14 12 -12 18 6 21 28 4 28 -9 0 -16 -7 -16 -16z"/>
<path d="M9400 5211 c0 -6 11 -21 24 -32 13 -12 27 -36 31 -55 4 -24 15 -38
35 -49 18 -9 32 -28 40 -52 14 -46 61 -142 72 -149 4 -3 8 16 8 41 0 42 -28
102 -52 113 -5 2 -8 9 -8 16 0 7 -13 31 -29 53 -16 22 -36 54 -46 72 -9 18
-22 30 -28 28 -7 -2 -20 2 -29 11 -12 10 -18 11 -18 3z"/>
<path d="M6560 5010 c0 -5 5 -10 10 -10 6 0 10 5 10 10 0 6 -4 10 -10 10 -5 0
-10 -4 -10 -10z"/>
<path d="M9680 4950 c0 -30 8 -53 30 -83 23 -33 29 -51 27 -82 -3 -36 -6 -40
-29 -40 -17 -1 -24 3 -21 12 3 7 -2 13 -10 13 -10 0 -13 -7 -10 -20 4 -14 14
-20 34 -20 33 0 38 -18 13 -55 -18 -27 -12 -76 12 -96 8 -6 14 -20 14 -30 0
-11 4 -19 9 -19 13 0 21 27 21 74 0 38 13 66 31 66 4 0 18 -17 30 -37 27 -45
37 -53 67 -53 l22 0 -21 43 c-12 23 -28 49 -35 58 -11 12 -12 23 -4 43 l10 26
20 -20 c11 -11 29 -20 41 -20 23 0 60 -18 71 -34 4 -6 8 -29 8 -51 0 -55 9
-65 68 -72 40 -4 61 -1 97 16 l46 22 39 -22 c44 -25 70 -20 70 14 0 31 23 51
50 42 34 -11 22 3 -27 31 -27 15 -86 65 -131 113 -68 70 -79 78 -61 46 43 -75
79 -148 79 -160 0 -6 -10 -11 -22 -11 -19 1 -23 -4 -21 -27 2 -27 1 -27 -35
-21 -71 13 -95 36 -153 153 -41 83 -57 107 -66 99 -10 -8 -13 -5 -13 10 0 11
-7 25 -15 32 -12 10 -16 9 -21 -6 -3 -11 -12 -32 -19 -47 l-12 -28 -40 42
c-38 39 -41 40 -48 20 -11 -35 -41 -26 -59 19 -9 22 -16 51 -16 65 0 13 -4 27
-10 30 -6 4 -10 -10 -10 -35z m287 -166 c-4 -4 -14 1 -22 12 -22 29 -18 41 7
17 12 -13 19 -26 15 -29z"/>
<path d="M10492 4767 c-14 -17 0 -39 20 -32 10 4 14 14 11 26 -6 22 -16 24
-31 6z"/>
<path d="M6790 4750 c0 -5 5 -10 10 -10 6 0 10 5 10 10 0 6 -4 10 -10 10 -5 0
-10 -4 -10 -10z"/>
<path d="M7365 4440 c3 -5 8 -10 11 -10 2 0 4 5 4 10 0 6 -5 10 -11 10 -5 0
-7 -4 -4 -10z"/>
<path d="M7160 4411 c0 -9 30 -24 36 -18 2 1 -6 8 -16 15 -11 7 -20 8 -20 3z"/>
<path d="M7480 4032 c0 -5 7 -13 16 -16 10 -4 14 -1 12 6 -5 15 -28 23 -28 10z"/>
<path d="M7535 3880 c3 -5 10 -10 16 -10 5 0 9 5 9 10 0 6 -7 10 -16 10 -8 0
-12 -4 -9 -10z"/>
<path d="M9492 3374 c111 -114 158 -168 158 -179 0 -5 -14 5 -30 22 -25 28
-130 90 -130 77 0 -3 11 -16 25 -30 14 -14 25 -29 25 -34 0 -6 7 -10 15 -10 8
0 15 -4 15 -10 0 -5 -7 -10 -15 -10 -8 0 -15 3 -15 8 0 4 -9 13 -20 20 -31 19
-37 -10 -11 -47 23 -32 30 -64 9 -43 -7 7 -15 12 -19 12 -12 0 2 -68 22 -108
11 -20 19 -42 19 -49 0 -6 15 -38 34 -70 18 -32 37 -69 41 -83 10 -35 62 -126
87 -156 25 -28 98 -68 98 -53 0 23 35 3 37 -21 1 -14 10 -50 21 -80 11 -30 34
-101 52 -157 32 -106 52 -133 97 -133 13 0 24 8 28 20 5 16 15 20 55 20 27 0
51 3 53 8 3 4 -18 6 -47 4 -48 -3 -56 0 -102 36 -43 34 -55 51 -78 113 -29 78
-57 181 -51 187 2 2 10 -5 17 -17 10 -17 23 -21 65 -21 31 0 53 -4 53 -11 0
-5 32 -55 70 -109 70 -99 94 -143 83 -154 -4 -3 -3 -6 0 -6 3 0 11 9 17 20 10
18 -3 47 -80 170 -34 55 -59 102 -69 131 -10 30 -9 35 14 59 14 14 25 32 25
39 0 23 -107 170 -153 211 -16 13 -33 33 -38 45 -7 13 -1 10 14 -8 22 -26 26
-28 46 -16 11 8 21 17 21 20 0 14 -91 119 -122 140 -18 13 -97 80 -176 149
-79 69 -150 126 -158 128 -7 2 -14 7 -14 11 0 3 -15 15 -32 25 -24 14 -12 -3
44 -60z m322 -445 l18 -31 -26 17 c-24 16 -66 73 -66 91 0 13 54 -42 74 -77z
m83 -116 c33 -43 84 -126 79 -131 -3 -2 -22 1 -42 9 -28 10 -44 27 -65 64 -33
60 -34 62 -11 68 9 3 19 5 21 6 2 0 10 -7 18 -16z"/>
<path d="M8790 3412 c6 -13 14 -21 18 -18 3 4 -2 14 -12 24 -18 16 -18 16 -6
-6z"/>
<path d="M9270 2723 c0 -4 16 -21 35 -36 19 -15 35 -24 35 -20 0 4 -16 21 -35
36 -19 15 -35 24 -35 20z"/>
<path d="M9408 2563 c37 -85 58 -117 113 -175 69 -72 131 -139 166 -181 27
-32 48 -34 63 -7 9 16 6 22 -17 34 -16 8 -48 37 -72 65 -24 28 -49 51 -55 51
-6 0 -26 16 -43 35 -18 19 -35 34 -37 33 -10 -7 -61 61 -83 109 -14 29 -28 53
-33 53 -5 0 -6 -8 -2 -17z"/>
<path d="M9766 2540 c4 -14 17 -48 30 -77 13 -28 24 -60 24 -70 0 -26 57 -310
71 -355 7 -21 20 -45 29 -53 19 -17 84 -39 75 -25 -3 4 -1 20 5 34 8 23 6 28
-18 40 -35 18 -66 53 -81 92 -13 33 -58 206 -70 269 -4 22 -22 69 -40 105 -17
36 -29 54 -25 40z"/>
<path d="M9594 2014 c3 -19 47 -64 62 -64 28 0 4 43 -35 63 -24 12 -28 12 -27
1z"/>
<path d="M9874 1800 c14 -30 31 -57 37 -59 6 -2 -1 18 -17 45 -40 71 -49 77
-20 14z"/>
<path d="M9531 1773 c0 -4 4 -17 9 -28 8 -19 9 -19 9 2 1 12 -3 25 -9 28 -5 3
-10 3 -9 -2z"/>
<path d="M9540 1706 c0 -8 5 -18 10 -21 6 -3 10 1 10 9 0 8 -4 18 -10 21 -5 3
-10 -1 -10 -9z"/>
<path d="M9120 1641 c0 -5 5 -13 10 -16 6 -3 10 -2 10 4 0 5 -4 13 -10 16 -5
3 -10 2 -10 -4z"/>
<path d="M9372 1430 c0 -14 2 -19 5 -12 2 6 2 18 0 25 -3 6 -5 1 -5 -13z"/>
<path d="M9372 1370 c0 -14 2 -19 5 -12 2 6 2 18 0 25 -3 6 -5 1 -5 -13z"/>
</g>
</svg>